<svg width="20" height="20" viewBox="0 0 20 20" fill="none" xmlns="http://www.w3.org/2000/svg">
<g clip-path="url(#clip0_15_1056)">
<path d="M19.1656 1.81692H15V0.910151C15.0004 0.790499 14.9791 0.671941 14.9373 0.56131C14.8955 0.450679 14.8341 0.350163 14.7565 0.265555C14.679 0.180948 14.5868 0.113922 14.4854 0.068341C14.384 0.02276 14.2753 -0.000474757 14.1656 -2.40851e-05H5.83437C5.72469 -0.000474757 5.616 0.02276 5.51459 0.068341C5.41317 0.113922 5.32102 0.180948 5.24346 0.265555C5.1659 0.350163 5.10446 0.450679 5.06267 0.56131C5.02089 0.671941 4.99959 0.790499 5 0.910151V1.81692H0.834375C0.613085 1.81692 0.400858 1.91281 0.244383 2.0835C0.0879071 2.25419 0 2.4857 0 2.72709C0 2.96849 0.0879071 3.19999 0.244383 3.37068C0.400858 3.54138 0.613085 3.63727 0.834375 3.63727H2.5V17.2729C2.5 17.9961 2.76339 18.6898 3.23223 19.2012C3.70107 19.7127 4.33696 20 5 20H15C15.663 20 16.2989 19.7127 16.7678 19.2012C17.2366 18.6898 17.5 17.9961 17.5 17.2729V3.63727H19.1656C19.3869 3.63727 19.5991 3.54138 19.7556 3.37068C19.9121 3.19999 20 2.96849 20 2.72709C20 2.4857 19.9121 2.25419 19.7556 2.0835C19.5991 1.91281 19.3869 1.81692 19.1656 1.81692ZM15.8344 17.2729C15.8335 17.5137 15.7453 17.7443 15.5889 17.9142C15.4325 18.0842 15.2207 18.1796 15 18.1796H5C4.77925 18.1796 4.5675 18.0842 4.41111 17.9142C4.25472 17.7443 4.16645 17.5137 4.16563 17.2729V3.63727H15.8344V17.2729Z" fill="#623E5A"/>
<path d="M7.4999 15.4525C7.72065 15.4525 7.93241 15.3571 8.08879 15.1871C8.24518 15.0172 8.33345 14.7866 8.33428 14.5458V7.27117C8.33428 7.02977 8.24637 6.79827 8.08989 6.62758C7.93342 6.45689 7.72119 6.36099 7.4999 6.36099C7.27861 6.36099 7.06639 6.45689 6.90991 6.62758C6.75343 6.79827 6.66553 7.02977 6.66553 7.27117V14.5458C6.66635 14.7866 6.75463 15.0172 6.91101 15.1871C7.0674 15.3571 7.27915 15.4525 7.4999 15.4525Z" fill="#623E5A"/>
<path d="M12.4999 15.4525C12.7207 15.4525 12.9324 15.3571 13.0888 15.1871C13.2452 15.0172 13.3334 14.7866 13.3343 14.5458V7.27117C13.3343 7.02977 13.2464 6.79827 13.0899 6.62758C12.9334 6.45689 12.7212 6.36099 12.4999 6.36099C12.2786 6.36099 12.0664 6.45689 11.9099 6.62758C11.7534 6.79827 11.6655 7.02977 11.6655 7.27117V14.5458C11.6664 14.7866 11.7546 15.0172 11.911 15.1871C12.0674 15.3571 12.2792 15.4525 12.4999 15.4525Z" fill="#623E5A"/>
</g>
<defs>
<clipPath id="clip0_15_1056">
<rect width="20" height="20" fill="white"/>
</clipPath>
</defs>
</svg>
