<svg width="25" height="25" viewBox="0 0 25 25" fill="none" xmlns="http://www.w3.org/2000/svg">
<g clip-path="url(#clip0_15_586)">
<path d="M22.2222 0H2.77778C1.24365 0 0 1.24365 0 2.77778V22.2222C0 23.7563 1.24365 25 2.77778 25H22.2222C23.7563 25 25 23.7563 25 22.2222V2.77778C25 1.24365 23.7563 0 22.2222 0Z" fill="#623E5A"/>
<path fill-rule="evenodd" clip-rule="evenodd" d="M22.5778 5.1449V8.37771L20.6591 8.38271C19.1552 8.38271 18.8653 9.09722 18.8653 10.1415V12.4549H22.4479L21.9832 16.0725H18.8653V25.4861H15.1284V16.0725H12V12.4549H15.1284V9.78675C15.1284 6.68886 17.0166 5 19.7847 5C21.1043 5 22.2431 5.09993 22.5778 5.1449Z" fill="#E09FB8"/>
</g>
<defs>
<clipPath id="clip0_15_586">
<rect width="25" height="25" fill="white"/>
</clipPath>
</defs>
</svg>
