<svg width="30" height="30" viewBox="0 0 30 30" fill="none" xmlns="http://www.w3.org/2000/svg">
<path d="M29.2383 1.34724C28.7045 1.12628 28.2489 1.21712 27.8711 1.6208L25.3321 4.14056C23.9388 2.82541 22.3471 1.8066 20.5567 1.08393C18.7663 0.361334 16.9141 0 15 0C12.9688 0 11.0287 0.397317 9.1798 1.19147C7.33072 1.98569 5.73564 3.05321 4.39456 4.39436C3.05341 5.73564 1.98562 7.33052 1.1914 9.17946C0.397248 11.0285 0 12.9683 0 14.9998C0 17.0306 0.397248 18.9709 1.19147 20.8199C1.9859 22.6691 3.05341 24.2641 4.39463 25.6052C5.73571 26.946 7.33078 28.0137 9.17987 28.808C11.0288 29.6023 12.9689 29.9996 15.0001 29.9996C17.2395 29.9996 19.369 29.5276 21.3869 28.5835C23.4049 27.6398 25.1237 26.3083 26.5433 24.5894C26.6473 24.4593 26.6961 24.3127 26.6894 24.15C26.6833 23.9873 26.6211 23.8538 26.504 23.7497L23.8286 21.0544C23.6849 20.9374 23.5227 20.8789 23.3403 20.8789C23.132 20.9049 22.9824 20.9833 22.8911 21.1135C21.9406 22.3507 20.7752 23.3075 19.395 23.9851C18.015 24.6619 16.5501 25.0002 15.0006 25.0002C13.6467 25.0002 12.3543 24.7365 11.1238 24.2091C9.89323 23.6819 8.82866 22.969 7.93039 22.0706C7.03218 21.172 6.3193 20.1079 5.79187 18.8771C5.26458 17.6467 5.00086 16.3546 5.00086 15.0003C5.00086 13.6462 5.26478 12.3536 5.79187 11.1234C6.31909 9.89303 7.03191 8.82846 7.93039 7.93019C8.82893 7.03171 9.89323 6.31883 11.1238 5.7914C12.354 5.26417 13.6467 5.00039 15.0006 5.00039C17.6178 5.00039 19.8901 5.89237 21.8172 7.67626L19.1213 10.3711C18.7175 10.7618 18.6267 11.2111 18.8476 11.7189C19.0693 12.2397 19.4534 12.5001 20.0006 12.5001H28.7504C29.089 12.5001 29.3818 12.3765 29.6293 12.129C29.8765 11.8817 30.0001 11.5887 30.0001 11.2502V2.50013C30 1.95341 29.7467 1.56929 29.2383 1.34724Z" fill="#623E5A"/>
</svg>
