<svg width="20" height="20" viewBox="0 0 20 20" fill="none" xmlns="http://www.w3.org/2000/svg">
<path d="M17.6337 10.975C17.6748 10.655 17.7057 10.33 17.7057 10C17.7057 9.67 17.6748 9.345 17.6337 9.025L19.8075 7.37C20.0027 7.22 20.0593 6.95 19.9308 6.73L17.8752 3.265C17.7468 3.05 17.4795 2.96 17.2483 3.05L14.6891 4.055C14.1598 3.66 13.5791 3.325 12.9522 3.07L12.5668 0.42C12.5205 0.185 12.3098 0 12.0529 0H7.94176C7.68482 0 7.47413 0.185 7.43301 0.42L7.0476 3.07C6.42065 3.325 5.83996 3.655 5.31065 4.055L2.75149 3.05C2.52024 2.965 2.25302 3.05 2.12454 3.265L0.068987 6.73C-0.0594853 6.945 -0.00295737 7.215 0.19232 7.37L2.36093 9.025C2.31982 9.345 2.28899 9.67 2.28899 10C2.28899 10.33 2.31982 10.655 2.36093 10.975L0.19232 12.63C-0.00295737 12.78 -0.0594853 13.05 0.068987 13.27L2.12454 16.735C2.25302 16.95 2.52024 17.04 2.75149 16.95L5.31065 15.945C5.83996 16.34 6.42065 16.675 7.0476 16.93L7.43301 19.58C7.47413 19.815 7.68482 20 7.94176 20H12.0529C12.3098 20 12.5205 19.815 12.5616 19.58L12.947 16.93C13.574 16.675 14.1547 16.345 14.684 15.945L17.2432 16.95C17.4744 17.035 17.7416 16.95 17.8701 16.735L19.9257 13.27C20.0541 13.055 19.9976 12.785 19.8023 12.63L17.6337 10.975ZM9.99732 13.5C8.00857 13.5 6.4001 11.935 6.4001 10C6.4001 8.065 8.00857 6.5 9.99732 6.5C11.9861 6.5 13.5945 8.065 13.5945 10C13.5945 11.935 11.9861 13.5 9.99732 13.5Z" fill="#623E5A"/>
</svg>
