<svg width="25" height="25" viewBox="0 0 25 25" fill="none" xmlns="http://www.w3.org/2000/svg">
<path d="M19.6167 25H5.38333C2.41111 25 0 22.5889 0 19.6167V5.38333C0 2.41111 2.41111 0 5.38333 0H19.6167C22.5889 0 25 2.41111 25 5.38333V19.6167C25 22.5889 22.5889 25 19.6167 25Z" fill="#623E5A"/>
<path d="M5.86598 11.0864L14.2826 7.61978C15.1132 7.25867 17.9299 6.10311 17.9299 6.10311C17.9299 6.10311 19.2299 5.59755 19.1215 6.82533C19.0854 7.33089 18.7965 9.10033 18.5076 11.017L17.6049 16.6892C17.6049 16.6892 17.5326 17.5198 16.9188 17.6642C16.3049 17.8087 15.2938 17.1587 15.1132 17.0142C14.9688 16.9059 12.4049 15.2809 11.466 14.4864C11.2132 14.2698 10.9243 13.8364 11.5021 13.3309C12.8021 12.1392 14.3549 10.6587 15.2938 9.71977C15.7271 9.28644 16.1604 8.27533 14.3549 9.50311L9.26042 12.9281C9.26042 12.9281 8.68264 13.2892 7.59931 12.9642C6.51598 12.6392 5.25209 12.2059 5.25209 12.2059C5.25209 12.2059 4.38542 11.6642 5.86598 11.0864Z" fill="#E09FB8"/>
</svg>
