<svg width="25" height="25" viewBox="0 0 25 25" fill="none" xmlns="http://www.w3.org/2000/svg">
<path fill-rule="evenodd" clip-rule="evenodd" d="M2.77778 25H22.2222C23.7563 25 25 23.7563 25 22.2222V2.77778C25 1.24365 23.7563 0 22.2222 0H2.77778C1.24365 0 0 1.24365 0 2.77778V22.2222C0 23.7563 1.24365 25 2.77778 25Z" fill="#623E5A"/>
<path fill-rule="evenodd" clip-rule="evenodd" d="M12.4999 3.47222C17.4858 3.47222 21.5277 7.51409 21.5277 12.5C21.5277 17.4859 17.4858 21.5278 12.4999 21.5278C7.51404 21.5278 3.47217 17.4859 3.47217 12.5C3.47217 7.51409 7.51404 3.47222 12.4999 3.47222ZM13.0406 7.14958C13.6545 7.22619 14.1505 7.37407 14.6948 7.63955C15.2301 7.90148 15.5727 8.14913 16.026 8.59991C16.4507 9.02574 16.6862 9.34825 16.9361 9.84891C17.284 10.5474 17.4821 11.3776 17.516 12.2917C17.5285 12.6035 17.5196 12.673 17.4482 12.762C17.3126 12.9349 17.0146 12.9064 16.9129 12.7122C16.8807 12.648 16.8718 12.5928 16.8611 12.3433C16.8433 11.9603 16.8165 11.7126 16.763 11.4168C16.5524 10.2569 15.9957 9.33043 15.107 8.66583C14.3665 8.10994 13.6009 7.8391 12.5981 7.78031C12.2591 7.76071 12.2002 7.74825 12.1234 7.68945C11.9807 7.57719 11.9735 7.31351 12.1109 7.19057C12.1948 7.11394 12.2537 7.10325 12.5446 7.11216C12.6962 7.11751 12.9193 7.13532 13.0406 7.14958ZM8.96141 7.34201C9.02388 7.36339 9.12023 7.41327 9.17555 7.44891C9.51458 7.67342 10.4586 8.87963 10.7673 9.48188C10.9439 9.82574 11.0028 10.0805 10.9475 10.2694C10.8904 10.4725 10.7958 10.5794 10.3729 10.9197C10.2034 11.0569 10.0446 11.1977 10.0196 11.2351C9.95535 11.3278 9.90358 11.5095 9.90358 11.6378C9.90539 11.9353 10.0981 12.4752 10.3515 12.8903C10.5478 13.2128 10.8993 13.6262 11.2473 13.9433C11.6559 14.3175 12.0164 14.5723 12.4232 14.7736C12.9461 15.0338 13.2655 15.0997 13.4992 14.991C13.5581 14.9643 13.6206 14.9286 13.6402 14.9126C13.658 14.8966 13.7955 14.7291 13.9454 14.5438C14.2344 14.1803 14.3004 14.1215 14.4985 14.0538C14.7501 13.9683 15.0071 13.9915 15.2658 14.1233C15.4621 14.2249 15.8904 14.4903 16.167 14.6828C16.531 14.9376 17.309 15.5719 17.4143 15.6984C17.5999 15.9264 17.632 16.2186 17.5071 16.5411C17.375 16.8814 16.8611 17.5193 16.5024 17.7919C16.1777 18.0378 15.9475 18.1322 15.6441 18.1465C15.3943 18.1589 15.2908 18.1376 14.9714 18.0057C12.4661 16.9741 10.4657 15.4347 8.87753 13.3197C8.04779 12.2151 7.41608 11.0694 6.98423 9.88099C6.73264 9.1879 6.72016 8.88678 6.92713 8.53222C7.01637 8.38256 7.39645 8.01195 7.67304 7.80527C8.13344 7.46317 8.34577 7.33666 8.5153 7.30103C8.63128 7.27608 8.83291 7.29568 8.96141 7.34201ZM13.1638 8.44134C14.2469 8.59991 15.0856 9.10237 15.6352 9.9184C15.9439 10.3781 16.1366 10.918 16.2027 11.497C16.2258 11.709 16.2258 12.0957 16.2009 12.1598C16.1777 12.2204 16.1027 12.3024 16.0385 12.3362C15.9689 12.3718 15.8208 12.3683 15.7387 12.3255C15.6013 12.256 15.5603 12.1456 15.5603 11.8462C15.5603 11.3848 15.4407 10.8984 15.2337 10.5206C14.9982 10.0894 14.6556 9.7331 14.238 9.48543C13.8793 9.27162 13.3494 9.11305 12.8658 9.07386C12.6909 9.05959 12.5945 9.02396 12.5285 8.94735C12.4268 8.83153 12.4161 8.67474 12.5017 8.54468C12.5945 8.40036 12.7373 8.37719 13.1638 8.44134ZM13.5438 9.78655C13.8954 9.86138 14.1648 9.99501 14.395 10.2106C14.6912 10.4903 14.8536 10.8289 14.925 11.3153C14.9732 11.6324 14.9535 11.7571 14.8411 11.8605C14.7358 11.9567 14.5414 11.9603 14.4236 11.8694C14.3379 11.8052 14.3111 11.7375 14.2915 11.554C14.2683 11.3099 14.2255 11.1389 14.1524 10.9803C13.9953 10.6436 13.7187 10.4689 13.2512 10.4119C13.0317 10.3852 12.9657 10.3603 12.8943 10.2765C12.764 10.1215 12.814 9.87029 12.9942 9.77763C13.0621 9.74378 13.0906 9.74022 13.2405 9.74913C13.3333 9.75447 13.4707 9.7705 13.5438 9.78655Z" fill="#E09FB8"/>
</svg>
