<svg width="25" height="25" viewBox="0 0 25 25" fill="none" xmlns="http://www.w3.org/2000/svg">
<path fill-rule="evenodd" clip-rule="evenodd" d="M2.77778 25H22.2222C23.7563 25 25 23.7563 25 22.2222V2.77778C25 1.24365 23.7563 0 22.2222 0H2.77778C1.24365 0 0 1.24365 0 2.77778V22.2222C0 23.7563 1.24365 25 2.77778 25Z" fill="#623E5A"/>
<path fill-rule="evenodd" clip-rule="evenodd" d="M10.7792 14.6771L10.7787 9.96102L15.2819 12.3272L10.7792 14.6771ZM20.6667 9.14381C20.6667 9.14381 20.5037 7.98722 20.0042 7.47791C19.3704 6.80913 18.66 6.80598 18.3345 6.76717C16.0022 6.59722 12.5037 6.59722 12.5037 6.59722H12.4964C12.4964 6.59722 8.998 6.59722 6.66571 6.76717C6.33966 6.80598 5.62977 6.80913 4.99539 7.47791C4.49591 7.98722 4.33341 9.14381 4.33341 9.14381C4.33341 9.14381 4.16675 10.5023 4.16675 11.8603V13.1339C4.16675 14.4924 4.33341 15.8504 4.33341 15.8504C4.33341 15.8504 4.49591 17.007 4.99539 17.5163C5.62977 18.1851 6.46258 18.1641 6.83341 18.2339C8.16675 18.3629 12.5001 18.4028 12.5001 18.4028C12.5001 18.4028 16.0022 18.3975 18.3345 18.2276C18.66 18.1882 19.3704 18.1851 20.0042 17.5163C20.5037 17.007 20.6667 15.8504 20.6667 15.8504C20.6667 15.8504 20.8334 14.4924 20.8334 13.1339V11.8603C20.8334 10.5023 20.6667 9.14381 20.6667 9.14381Z" fill="#E09FB8"/>
</svg>
